<?xml version="1.0" encoding="UTF-8"?>
<!-- Generated by Pixelmator Pro 3.7.1 -->
<svg width="1024" height="1024" viewBox="0 0 1024 1024" xmlns="http://www.w3.org/2000/svg">
    <path id="Path" fill="#fefefe" stroke="none" visibility="hidden" d="M 1023 -1 C 1023 -1 1023 1023 1023 1023 C 1023 1023 -1 1023 -1 1023 C -1 1023 -1 -1 -1 -1 C -1 -1 1023 -1 1023 -1 Z M 201 422 C 200.238998 424.549988 200.610992 441.721985 202.5 444 C 202.5 444 281 482 281 482 C 271.220001 487.480957 259.229004 491.69397 254 502.5 C 254 502.5 252 588.5 252 588.5 C 238.369003 593.934021 235.048996 606.164001 239 619.5 C 240.975006 626.164978 244.561996 620.77002 243 633.5 C 240.134995 656.844971 225.608994 688.367981 215 709.5 C 215 709.5 263.5 743 263.5 743 C 266.197998 743.096985 276.337006 732.890015 279 731 C 282.80899 728.296997 286.285004 725.872009 290 723 C 293.608002 720.210022 297.411987 717.984985 301 715 C 302.158997 714.036011 307.799011 711.596008 308 710.5 C 299.131989 698.351013 268.141998 639.455017 271 627.5 C 271.115997 627.013977 276.112 622.323975 277 619.5 C 280.39801 608.692993 276.710999 596.752991 267 591 C 265.355011 590.026001 263.540985 589.864014 263 588 C 267.151001 568.429993 258.744995 531.848999 263 512.5 C 265.187988 502.552002 289.57901 493.420044 298 489 C 301.373993 490.530029 304.609009 492.516968 308 494 C 309.709015 494.747009 311.415009 494.737 312 495 C 312.065002 495.028992 311.662994 495.390991 313 496 C 313 496 313 509 313 509 C 313 509 313 530 313 530 C 313 559.604004 311.82901 590.573975 313 620 C 313.07901 621.981995 312.869995 624.025024 313 626 C 313.181 628.73999 311.946991 634.283997 314.5 636 C 343.070007 641.424988 371.095001 651.981995 397 665 C 438.417999 685.814026 476.32901 715.106995 511.5 745 C 525.924011 732.833984 540.203003 720.067993 555.5 709 C 563.450989 703.247009 606.65802 677.231995 609 674 C 641.088989 657.737 673.836975 641.947021 709.5 635 C 710.585999 633.703003 709.825012 629.08197 710 627 C 710.192017 624.710022 709.903992 622.304993 710 620 C 711.728027 578.492004 708.710022 536.546997 710 495 C 746.655029 477.677979 783.744995 461.141968 820.5 444 C 820.5 444 821 421 821 421 C 821 421 512 278 512 278 C 512 278 209.5 416 209.5 416 C 207.317001 418.028015 201.960007 418.781982 201 422 Z M 474.5 847 C 427.544006 847.901001 367.13501 849.323975 321.5 858 C 315.036987 859.229004 286.204987 864.421997 288 872.5 C 297.122986 880.062988 312.825989 882.851013 324.5 885 C 417.403015 902.104004 606.745972 902.528992 699.5 885 C 705.296021 883.905029 744.435974 877.25 732.5 867 C 710.820984 848.382019 512.200989 846.276978 474.5 847 Z"/>
    <g id="Group">
        <linearGradient id="linearGradient1" x1="49.784483" y1="237.523733" x2="495.064502" y2="256.15272" gradientUnits="userSpaceOnUse">
            <stop offset="1e-05" stop-color="#fed50e" stop-opacity="1"/>
            <stop offset="1" stop-color="#f8a121" stop-opacity="1"/>
        </linearGradient>
        <path id="path1" fill="url(#linearGradient1)" stroke="none" d="M 513.955933 87.848083 C 513.955933 87.848083 517.257202 252.910889 517.257202 252.910889 C 479.330719 251.828064 453.904419 263.299927 454.533325 304.080383 C 394.414154 327.743774 331.148895 343.084717 270.488312 365.153564 C 239.796539 376.318481 201.472229 389.66217 172.27594 403.118042 C 172.27594 403.118042 0.610624 325.538513 0.610624 325.538513 C 2.195238 320.226746 11.037643 318.982239 14.640962 315.634766 C 14.640962 315.634766 513.955933 87.848083 513.955933 87.848083 Z"/>
        <linearGradient id="linearGradient2" x1="974.793128" y1="319.591307" x2="521.116364" y2="334.519587" gradientUnits="userSpaceOnUse">
            <stop offset="1e-05" stop-color="#e15438" stop-opacity="1"/>
            <stop offset="1" stop-color="#f1882a" stop-opacity="1"/>
        </linearGradient>
        <path id="path2" fill="url(#linearGradient2)" stroke="none" d="M 1024 323.887878 C 908.408203 376.483521 794.112061 432.008972 679.018738 485.649414 C 623.93396 511.321594 568.974609 537.416443 513.955933 563.228943 C 513.318848 491.505798 510.998016 419.629272 512.305298 347.822021 C 512.916016 346.116943 516.412048 347.503418 517.257202 346.996704 C 557.270142 358.136841 602.871948 326.911865 571.727905 287.574097 C 567.969482 261.67572 540.271912 253.567871 517.257202 252.910889 C 517.257202 252.910889 513.955933 87.848083 513.955933 87.848083 C 513.955933 87.848083 1024 323.887878 1024 323.887878 Z"/>
        <linearGradient id="linearGradient3" x1="550.822717" y1="297.246756" x2="481.587124" y2="300.78075" gradientUnits="userSpaceOnUse">
            <stop offset="1e-05" stop-color="#1b6ea6" stop-opacity="1"/>
            <stop offset="1" stop-color="#2585be" stop-opacity="1"/>
        </linearGradient>
        <path id="path3" fill="url(#linearGradient3)" stroke="none" d="M 517.257202 252.910889 C 540.271912 253.567871 567.969482 261.67572 571.727905 287.574097 C 571.88147 288.628906 571.632202 289.802368 571.727905 290.875305 C 555.647522 313.564819 524.807129 320.578369 498.274963 315.634766 C 498.274963 315.634766 499.100281 343.695435 499.100281 343.695435 C 490.346985 342.572998 471.49353 335.835205 464.437103 330.490417 C 463.245361 329.587524 459.087433 324.407837 459.485229 322.237244 C 463.461578 322.080505 464.484955 326.238403 466.087738 324.713196 C 473.111145 318.028198 466.832153 306.100708 458.659912 302.429749 C 458.659912 302.429749 454.533325 312.333496 454.533325 312.333496 C 454.246094 309.67926 454.574585 306.772522 454.533325 304.080383 C 453.904419 263.299927 479.330719 251.828064 517.257202 252.910889 Z M 460.310516 294.176575 C 451.36084 298.314636 489.599243 320.804443 495.799042 314.809448 C 484.028381 307.457581 469.346069 305.734314 460.310516 294.176575 Z"/>
        <path id="path4" fill="#cc6a32" stroke="none" d="M 517.257202 346.996704 C 517.417297 346.901001 517.164734 344.666016 517.257202 343.695435 C 554.297302 342.549927 575.306519 330.876648 571.727905 290.875305 C 571.632202 289.802368 571.88147 288.628906 571.727905 287.574097 C 602.871948 326.911865 557.270142 358.136841 517.257202 346.996704 Z"/>
        <path id="path5" fill="#06426f" stroke="none" d="M 517.257202 343.695435 C 511.879456 343.862183 504.161133 344.344116 499.100281 343.695435 C 499.100281 343.695435 498.274963 315.634766 498.274963 315.634766 C 524.807129 320.578369 555.647522 313.564819 571.727905 290.875305 C 575.306519 330.876648 554.297302 342.549927 517.257202 343.695435 Z"/>
        <path id="path6" fill="#e5f1f2" stroke="none" d="M 460.310516 294.176575 C 469.346069 305.734314 484.028381 307.457581 495.799042 314.809448 C 489.599243 320.804443 451.36084 298.314636 460.310516 294.176575 Z"/>
        <path id="path7" fill="#217bb3" stroke="none" d="M 459.485229 322.237244 C 457.892365 322.299927 457.600189 320.34729 456.18396 320.586609 C 457.755341 317.397583 454.587799 314.319214 454.533325 313.984131 C 454.445831 313.452576 454.592773 312.876526 454.533325 312.333496 C 454.533325 312.333496 458.659912 302.429749 458.659912 302.429749 C 466.832153 306.100708 473.111145 318.028198 466.087738 324.713196 C 464.484955 326.238403 463.461578 322.080505 459.485229 322.237244 Z"/>
        <path id="path8" fill="#d81273" stroke="none" d="M 454.533325 312.333496 C 454.592773 312.876526 454.445831 313.452576 454.533325 313.984131 C 362.152618 348.062988 265.335022 373.591614 176.402512 416.323059 C 149.967682 429.024658 97.372093 450.618103 93.045792 481.522888 C 91.418289 493.154846 90.880173 590.421387 93.045792 598.717468 C 93.778671 601.526855 96.257942 603.847534 99.648308 602.843994 C 98.638123 604.974976 93.914024 608.500732 94.696419 612.747803 C 78.886703 608.905151 72.407982 635.341553 76.539513 649.061646 C 65.587608 647.358154 76.348045 619.272705 70.762314 619.350342 C 55.267879 640.083801 76.519714 656.888916 78.19014 669.694458 C 80.573647 687.957031 73.111168 743.096191 69.937004 763.780273 C 68.64621 772.188538 55.536922 816.715942 56.731976 819.901611 C 57.656322 822.367676 95.632301 844.839233 101.298935 847.96228 C 101.298935 847.96228 83.967339 688.676697 83.967339 688.676697 C 92.256798 736.652222 100.663422 784.381775 104.600189 833.106628 C 104.912148 836.967407 100.176521 841.683289 102.949562 847.96228 C 114.814255 849.192017 128.242126 834.900818 126.058357 822.377563 C 126.824226 826.233398 126.928246 832.601501 129.359604 835.582581 C 124.963997 838.702271 108.228264 855.550171 103.774872 855.390137 C 103.774872 855.390137 23.719416 800.094055 23.719416 800.094055 C 41.230919 765.213013 65.207939 713.180176 69.937004 674.646362 C 72.515274 653.633911 66.59449 662.53894 63.334488 651.537598 C 56.812851 629.52478 62.292946 609.337646 84.792656 600.368042 C 84.792656 600.368042 88.09391 458.414063 88.09391 458.414063 C 96.725052 440.577332 116.517723 433.62323 132.660858 424.576172 C 143.942902 418.252686 161.102814 408.268005 172.27594 403.118042 C 201.472229 389.66217 239.796539 376.318481 270.488312 365.153564 C 331.148895 343.084717 394.414154 327.743774 454.533325 304.080383 C 454.574585 306.772522 454.246094 309.67926 454.533325 312.333496 Z"/>
        <path id="path9" fill="#860a57" stroke="none" d="M 454.533325 313.984131 C 454.587799 314.319214 457.755341 317.397583 456.18396 320.586609 C 371.113892 353.208008 283.378052 378.62439 200.336609 416.323059 C 196.999039 417.838257 193.752243 419.716797 190.432846 421.274963 C 180.182465 426.0849 170.726013 430.879883 160.721542 436.130615 C 146.821625 443.426453 106.561119 458.499939 102.949562 474.920349 C 95.926132 506.858337 109.801323 567.23999 102.949562 599.542786 C 102.901711 599.770569 100.98365 600.026489 99.648308 602.843994 C 96.257942 603.847534 93.778671 601.526855 93.045792 598.717468 C 90.880173 590.421387 91.418289 493.154846 93.045792 481.522888 C 97.372093 450.618103 149.967682 429.024658 176.402512 416.323059 C 265.335022 373.591614 362.152618 348.062988 454.533325 313.984131 Z"/>
        <path id="path10" fill="#cc8c25" stroke="none" d="M 459.485229 322.237244 C 459.087433 324.407837 463.245361 329.587524 464.437103 330.490417 C 464.437103 330.490417 215.192261 424.576172 215.192261 424.576172 C 212.977112 423.547913 210.799927 422.314819 208.589752 421.274963 C 205.963593 420.038574 202.02356 418.6521 200.336609 416.323059 C 283.378052 378.62439 371.113892 353.208008 456.18396 320.586609 C 457.600189 320.34729 457.892365 322.299927 459.485229 322.237244 Z"/>
        <path id="path11" fill="#971742" stroke="none" d="M 1024 323.887878 C 1024 323.887878 1023.174683 361.852356 1023.174683 361.852356 C 962.505859 390.147339 901.284119 417.442139 840.780273 446.034363 C 795.640564 467.367126 750.538757 489.003479 705.428772 510.408875 C 702.013672 505.577454 693.811646 514.693909 691.398438 513.710083 C 689.978943 513.130737 678.086121 489.832153 679.018738 485.649414 C 794.112061 432.008972 908.408203 376.483521 1024 323.887878 Z"/>
        <path id="path12" fill="#e87132" stroke="none" d="M 172.27594 403.118042 C 161.102814 408.268005 143.942902 418.252686 132.660858 424.576172 C 132.660858 424.576172 3.086565 361.852356 3.086565 361.852356 C -0.031483 358.092163 -0.645507 329.74762 0.610624 325.538513 C 0.610624 325.538513 172.27594 403.118042 172.27594 403.118042 Z"/>
        <linearGradient id="linearGradient4" x1="261.479178" y1="442.001882" x2="500.47361" y2="454.866877" gradientUnits="userSpaceOnUse">
            <stop offset="1e-05" stop-color="#fcbf17" stop-opacity="1"/>
            <stop offset="1" stop-color="#f9a221" stop-opacity="1"/>
        </linearGradient>
        <path id="path13" fill="url(#linearGradient4)" stroke="none" d="M 499.100281 343.695435 C 504.161133 344.344116 511.879456 343.862183 517.257202 343.695435 C 517.164734 344.666016 517.417297 346.901001 517.257202 346.996704 C 516.412048 347.503418 512.916016 346.116943 512.305298 347.822021 C 510.998016 419.629272 513.318848 491.505798 513.955933 563.228943 C 413.828827 518.211365 314.746582 470.815247 215.192261 424.576172 C 215.192261 424.576172 464.437103 330.490417 464.437103 330.490417 C 471.49353 335.835205 490.346985 342.572998 499.100281 343.695435 Z"/>
        <path id="path14" fill="#ad552b" stroke="none" d="M 208.589752 421.274963 C 208.589752 421.274963 183.830338 446.034363 183.830338 446.034363 C 182.864731 445.60022 180.048767 445.61676 177.227829 444.383728 C 177.227829 444.383728 190.432846 421.274963 190.432846 421.274963 C 193.752243 419.716797 196.999039 417.838257 200.336609 416.323059 C 202.02356 418.6521 205.963593 420.038574 208.589752 421.274963 Z"/>
        <path id="path15" fill="#d7752d" stroke="none" d="M 190.432846 421.274963 C 190.432846 421.274963 177.227829 444.383728 177.227829 444.383728 C 171.630554 441.935791 166.290756 438.656128 160.721542 436.130615 C 170.726013 430.879883 180.182465 426.0849 190.432846 421.274963 Z"/>
        <path id="path16" fill="#df6336" stroke="none" d="M 215.192261 424.576172 C 314.746582 470.815247 413.828827 518.211365 513.955933 563.228943 C 514.05658 574.572083 509.644501 587.427124 513.955933 599.542786 C 511.745758 601.20166 510.748779 601.034912 510.654694 601.193359 C 449.995758 570.092285 387.498016 542.62085 325.784332 513.710083 C 279.00061 491.79303 232.502396 469.110107 185.480957 447.684998 C 183.274063 446.679749 183.937622 446.082214 183.830338 446.034363 C 183.830338 446.034363 208.589752 421.274963 208.589752 421.274963 C 210.799927 422.314819 212.977112 423.547913 215.192261 424.576172 Z"/>
        <path id="path17" fill="#003456" stroke="none" d="M 840.780273 652.362915 C 834.857788 651.516113 829.701294 654.218201 824.273987 655.664124 C 824.273987 655.664124 835.82843 649.886963 835.82843 649.886963 C 835.82843 649.886963 833.352478 510.408875 833.352478 510.408875 C 833.352478 510.408875 670.765625 578.084595 670.765625 578.084595 C 670.765625 578.084595 669.11499 526.915161 669.11499 526.915161 C 681.070435 521.220459 693.460144 516.088623 705.428772 510.408875 C 750.538757 489.003479 795.640564 467.367126 840.780273 446.034363 C 838.651001 514.613037 843.632629 583.848633 840.780273 652.362915 Z"/>
        <path id="path18" fill="#0b5984" stroke="none" d="M 325.784332 513.710083 C 326.687225 518.110718 324.531525 527.601807 325.784332 531.041748 C 329.283661 540.651733 490.373444 604.489746 510.654694 617.699707 C 509.953186 628.595459 511.16803 639.790039 510.654694 650.71228 C 510.654694 650.71228 506.528107 652.362915 506.528107 652.362915 C 446.531097 620.662537 385.873779 589.757874 324.133728 561.578369 C 323.678131 561.370361 322.93866 561.786255 322.483093 561.578369 C 324.582703 554.584595 326.226715 535.729492 321.657776 530.216431 C 318.665192 526.606445 247.430695 495.505371 236.650436 490.601318 C 219.90976 482.985291 203.040344 474.789978 185.480957 469.143188 C 185.480957 469.143188 185.480957 447.684998 185.480957 447.684998 C 232.502396 469.110107 279.00061 491.79303 325.784332 513.710083 Z"/>
        <path id="path19" fill="#116695" stroke="none" d="M 236.650436 490.601318 C 236.650436 490.601318 234.999802 521.963257 234.999802 521.963257 C 234.999802 521.963257 185.480957 503.806335 185.480957 503.806335 C 185.480957 503.806335 185.480957 469.143188 185.480957 469.143188 C 203.040344 474.789978 219.90976 482.985291 236.650436 490.601318 Z"/>
        <path id="path20" fill="#aa2a3a" stroke="none" d="M 705.428772 510.408875 C 693.460144 516.088623 681.070435 521.220459 669.11499 526.915161 C 634.84137 543.239868 538.078247 581.437012 513.955933 599.542786 C 509.644501 587.427124 514.05658 574.572083 513.955933 563.228943 C 568.974609 537.416443 623.93396 511.321594 679.018738 485.649414 C 678.086121 489.832153 689.978943 513.130737 691.398438 513.710083 C 693.811646 514.693909 702.013672 505.577454 705.428772 510.408875 Z"/>
        <path id="path21" fill="#269aa0" stroke="none" d="M 236.650436 490.601318 C 247.430695 495.505371 318.665192 526.606445 321.657776 530.216431 C 326.226715 535.729492 324.582703 554.584595 322.483093 561.578369 C 293.575653 548.412903 264.833252 534.681396 234.999802 523.613892 C 234.998138 523.064209 235.001465 522.512939 234.999802 521.963257 C 234.999802 521.963257 236.650436 490.601318 236.650436 490.601318 Z"/>
        <path id="path22" fill="#1e7cb6" stroke="none" d="M 234.999802 521.963257 C 235.001465 522.512939 234.998138 523.064209 234.999802 523.613892 C 235.108765 570.4422 234.019333 617.158264 233.349182 663.917236 C 233.349182 663.917236 185.480957 652.362915 185.480957 652.362915 C 183.548096 603.791443 185.480957 552.671509 185.480957 503.806335 C 185.480957 503.806335 234.999802 521.963257 234.999802 521.963257 Z"/>
        <path id="path23" fill="#01466f" stroke="none" d="M 824.273987 655.664124 C 771.003296 669.849609 728.039063 689.36499 679.018738 713.436096 C 678.115845 713.878479 672.700134 714.114502 670.765625 715.086731 C 670.765625 715.086731 669.11499 579.735229 669.11499 579.735229 C 669.11499 579.735229 670.765625 578.084595 670.765625 578.084595 C 670.765625 578.084595 833.352478 510.408875 833.352478 510.408875 C 833.352478 510.408875 835.82843 649.886963 835.82843 649.886963 C 835.82843 649.886963 824.273987 655.664124 824.273987 655.664124 Z"/>
        <path id="path24" fill="#03456d" stroke="none" d="M 510.654694 601.193359 C 510.230499 601.90155 510.828003 615.000854 510.654694 617.699707 C 490.373444 604.489746 329.283661 540.651733 325.784332 531.041748 C 324.531525 527.601807 326.687225 518.110718 325.784332 513.710083 C 387.498016 542.62085 449.995758 570.092285 510.654694 601.193359 Z"/>
        <path id="path25" fill="#b0dae0" stroke="none" d="M 322.483093 561.578369 C 322.93866 561.786255 323.678131 561.370361 324.133728 561.578369 C 323.496582 608.296021 324.988739 655.172241 324.133728 701.881714 C 297.624634 689.856934 268.193909 676.729492 240.777008 667.218506 C 239.395416 666.739868 233.760178 664.6073 234.999802 668.869141 C 234.960205 668.611633 233.281525 668.581909 233.349182 663.917236 C 234.019333 617.158264 235.108765 570.4422 234.999802 523.613892 C 264.833252 534.681396 293.575653 548.412903 322.483093 561.578369 Z"/>
        <path id="path26" fill="#0a4e79" stroke="none" d="M 670.765625 578.084595 C 670.765625 578.084595 669.11499 579.735229 669.11499 579.735229 C 669.11499 579.735229 510.654694 650.71228 510.654694 650.71228 C 511.16803 639.790039 509.953186 628.595459 510.654694 617.699707 C 510.828003 615.000854 510.230499 601.90155 510.654694 601.193359 C 510.748779 601.034912 511.745758 601.20166 513.955933 599.542786 C 538.078247 581.437012 634.84137 543.239868 669.11499 526.915161 C 669.11499 526.915161 670.765625 578.084595 670.765625 578.084595 Z"/>
        <linearGradient id="linearGradient5" x1="655.952866" y1="683.700042" x2="342.548123" y2="695.292403" gradientUnits="userSpaceOnUse">
            <stop offset="1e-05" stop-color="#0d5b8d" stop-opacity="1"/>
            <stop offset="1" stop-color="#1e78b2" stop-opacity="1"/>
        </linearGradient>
        <path id="path27" fill="url(#linearGradient5)" stroke="none" d="M 510.654694 650.71228 C 510.654694 650.71228 669.11499 579.735229 669.11499 579.735229 C 669.11499 579.735229 670.765625 715.086731 670.765625 715.086731 C 615.674255 742.756226 563.16449 777.703308 514.78125 815.775024 C 489.44577 800.43573 466.289124 782.211182 441.328308 766.256226 C 402.931396 741.713013 365.744415 720.75824 324.133728 701.881714 C 324.988739 655.172241 323.496582 608.296021 324.133728 561.578369 C 385.873779 589.757874 446.531097 620.662537 506.528107 652.362915 C 506.528107 652.362915 510.654694 650.71228 510.654694 650.71228 Z"/>
        <path id="path28" fill="#c2146e" stroke="none" d="M 109.552071 604.494629 C 122.707581 622.243835 127.01902 646.95874 111.202698 664.742554 C 108.888504 667.343994 97.608139 671.506897 97.172363 672.17041 C 92.958298 678.571533 122.431938 804.108398 126.058357 822.377563 C 128.242126 834.900818 114.814255 849.192017 102.949562 847.96228 C 100.176521 841.683289 104.912148 836.967407 104.600189 833.106628 C 100.663422 784.381775 92.256798 736.652222 83.967339 688.676697 C 83.967339 688.676697 101.298935 847.96228 101.298935 847.96228 C 95.632301 844.839233 57.656322 822.367676 56.731976 819.901611 C 55.536922 816.715942 68.64621 772.188538 69.937004 763.780273 C 73.111168 743.096191 80.573647 687.957031 78.19014 669.694458 C 76.519714 656.888916 55.267879 640.083801 70.762314 619.350342 C 76.348045 619.272705 65.587608 647.358154 76.539513 649.061646 C 77.782448 653.186584 81.060577 656.824524 84.792656 658.965393 C 104.877495 670.490051 110.004326 640.115234 104.600189 625.95282 C 103.39521 622.796875 97.893707 613.525269 94.696419 612.747803 C 93.914024 608.500732 98.638123 604.974976 99.648308 602.843994 C 100.98365 600.026489 102.901711 599.770569 102.949562 599.542786 C 103.842529 602.619568 106.836807 602.886963 109.552071 604.494629 Z"/>
        <path id="path29" fill="#870457" stroke="none" d="M 165.673431 809.172546 C 142.399567 764.641846 128.998138 715.809692 112.028015 668.869141 C 111.618683 668.712402 105.592239 671.84198 105.425507 672.17041 C 101.896461 679.126099 141.584167 805.392639 147.516525 822.377563 C 141.384445 827.118164 135.646835 831.120911 129.359604 835.582581 C 126.928246 832.601501 126.824226 826.233398 126.058357 822.377563 C 122.431938 804.108398 92.958298 678.571533 97.172363 672.17041 C 97.608139 671.506897 108.888504 667.343994 111.202698 664.742554 C 127.01902 646.95874 122.707581 622.243835 109.552071 604.494629 C 125.581322 613.990723 131.667206 633.699219 126.058357 651.537598 C 124.592598 656.198853 116.346054 663.940308 116.154587 664.742554 C 111.437088 684.47583 162.590027 781.691284 177.227829 801.74469 C 176.896057 803.553833 167.586502 807.58136 165.673431 809.172546 Z"/>
        <path id="path30" fill="#9b055e" stroke="none" d="M 94.696419 612.747803 C 97.893707 613.525269 103.39521 622.796875 104.600189 625.95282 C 99.600449 630.119019 90.804237 637.579834 88.09391 643.284424 C 84.870224 650.071777 89.61908 654.368408 84.792656 658.965393 C 81.060577 656.824524 77.782448 653.186584 76.539513 649.061646 C 72.407982 635.341553 78.886703 608.905151 94.696419 612.747803 Z"/>
        <path id="path31" fill="#b7106b" stroke="none" d="M 84.792656 658.965393 C 89.61908 654.368408 84.870224 650.071777 88.09391 643.284424 C 90.804237 637.579834 99.600449 630.119019 104.600189 625.95282 C 110.004326 640.115234 104.877495 670.490051 84.792656 658.965393 Z"/>
        <path id="path32" fill="#79c3dd" stroke="none" d="M 233.349182 663.917236 C 233.281525 668.581909 234.960205 668.611633 234.999802 668.869141 C 235.405869 671.458923 234.729095 674.464844 234.999802 677.122314 C 218.932571 671.467163 201.430969 668.545654 185.480957 662.266602 C 185.266373 659.006714 185.611374 655.634399 185.480957 652.362915 C 185.480957 652.362915 233.349182 663.917236 233.349182 663.917236 Z"/>
        <path id="path33" fill="#337b93" stroke="none" d="M 840.780273 652.362915 C 840.621826 656.167542 841.097229 660.137329 840.780273 663.917236 C 816.692627 669.593811 792.131287 676.724487 768.977966 685.375427 C 758.021118 689.468994 682.669861 722.078857 679.018738 726.641113 C 679.018738 726.641113 679.018738 713.436096 679.018738 713.436096 C 728.039063 689.36499 771.003296 669.849609 824.273987 655.664124 C 829.701294 654.218201 834.857788 651.516113 840.780273 652.362915 Z"/>
        <path id="path34" fill="#1b7bb5" stroke="none" d="M 234.999802 677.122314 C 264.709442 687.579041 293.993225 701.691895 322.483093 715.086731 C 324.79068 716.171143 326.895233 717.3349 329.085602 718.388 C 321.963135 718.414429 326.162354 722.674683 324.133728 726.641113 C 281.374207 705.153259 235.115356 687.727539 187.956909 678.772949 C 183.742844 675.94043 185.779724 666.789307 185.480957 662.266602 C 201.430969 668.545654 218.932571 671.467163 234.999802 677.122314 Z"/>
        <path id="path35" fill="#024269" stroke="none" d="M 840.780273 663.917236 C 840.491455 667.353821 841.747559 674.981445 839.954956 677.122314 C 781.088562 688.589233 727.033813 714.652588 674.066833 741.496826 C 678.875183 734.861206 676.293579 730.148682 677.368103 728.291748 C 678.485596 726.360596 678.946106 726.731934 679.018738 726.641113 C 682.669861 722.078857 758.021118 689.468994 768.977966 685.375427 C 792.131287 676.724487 816.692627 669.593811 840.780273 663.917236 Z"/>
        <path id="path36" fill="#e5f1ef" stroke="none" d="M 324.133728 701.881714 C 324.051208 706.348267 325.115845 711.027832 322.483093 715.086731 C 293.993225 701.691895 264.709442 687.579041 234.999802 677.122314 C 234.729095 674.464844 235.405869 671.458923 234.999802 668.869141 C 233.760178 664.6073 239.395416 666.739868 240.777008 667.218506 C 268.193909 676.729492 297.624634 689.856934 324.133728 701.881714 Z"/>
        <path id="path37" fill="#c70d70" stroke="none" d="M 165.673431 809.172546 C 159.750946 814.099609 153.471985 817.772339 147.516525 822.377563 C 141.584167 805.392639 101.896461 679.126099 105.425507 672.17041 C 105.592239 671.84198 111.618683 668.712402 112.028015 668.869141 C 128.998138 715.809692 142.399567 764.641846 165.673431 809.172546 Z"/>
        <path id="path38" fill="#a1d3de" stroke="none" d="M 441.328308 766.256226 C 437.974213 769.762207 432.249847 770.831665 436.376434 776.159973 C 402.708557 754.252869 365.302032 735.793823 329.085602 718.388 C 326.895233 717.3349 324.79068 716.171143 322.483093 715.086731 C 325.115845 711.027832 324.051208 706.348267 324.133728 701.881714 C 365.744415 720.75824 402.931396 741.713013 441.328308 766.256226 Z"/>
        <path id="path39" fill="#45b4dd" stroke="none" d="M 679.018738 713.436096 C 679.018738 713.436096 679.018738 726.641113 679.018738 726.641113 C 678.946106 726.731934 678.485596 726.360596 677.368103 728.291748 C 618.1073 755.890198 563.560608 792.657959 513.130615 833.931946 C 487.397339 815.264954 463.010925 793.491577 436.376434 776.159973 C 432.249847 770.831665 437.974213 769.762207 441.328308 766.256226 C 466.289124 782.211182 489.44577 800.43573 514.78125 815.775024 C 563.16449 777.703308 615.674255 742.756226 670.765625 715.086731 C 672.700134 714.114502 678.115845 713.878479 679.018738 713.436096 Z"/>
        <path id="path40" fill="#0f6094" stroke="none" d="M 329.085602 718.388 C 365.302032 735.793823 402.708557 754.252869 436.376434 776.159973 C 463.010925 793.491577 487.397339 815.264954 513.130615 833.931946 C 563.560608 792.657959 618.1073 755.890198 677.368103 728.291748 C 676.293579 730.148682 678.875183 734.861206 674.066833 741.496826 C 670.201111 746.831604 598.882385 789.772705 585.75824 799.268799 C 560.508606 817.537903 536.939331 838.609802 513.130615 858.691406 C 455.076416 809.349121 392.49942 760.997314 324.133728 726.641113 C 326.162354 722.674683 321.963135 718.414429 329.085602 718.388 Z"/>
    </g>
</svg>
